<svg width="140" height="110" viewBox="0 0 140 110" fill="none" xmlns="http://www.w3.org/2000/svg">
<path d="M107.258 104.191L114.547 91.0681L107.273 105.603L107.288 107.079C106.756 107.084 106.229 107.074 105.708 107.047L106.069 88.0658L106.059 87.9194L106.072 87.8911L106.107 86.0974L98.125 72.0666L106.098 84.755L106.126 85.1341L106.399 70.7929L99.5047 56.2462L106.419 68.2736L106.346 38.5622L106.347 38.4633L106.349 38.5606L106.807 61.9771L113.09 52.4653L106.827 63.9944L106.964 76.8223L112.746 64.3028L106.986 78.7082L107.062 85.8412L115.47 68.4016L107.087 88.3296L107.258 104.191Z" fill="#E6E6E6"/>
<path d="M131.788 104.604L139.076 91.4815L131.803 106.016L131.818 107.493C131.286 107.498 130.759 107.487 130.237 107.461L130.599 88.4792L130.589 88.3327L130.602 88.3044L130.637 86.5108L122.655 72.48L130.627 85.1684L130.655 85.5475L130.929 71.2063L124.034 56.6595L130.948 68.6869L130.876 38.9756L130.876 38.8767L130.879 38.9739L131.336 62.3905L137.62 52.8787L131.357 64.4077L131.494 77.2357L137.276 64.7161L131.515 79.1216L131.591 86.2545L140 68.815L131.617 88.7429L131.788 104.604Z" fill="#E6E6E6"/>
<path d="M58.0502 0H14.4338V71.4274H58.0502V0Z" fill="#E6E6E6"/>
<path d="M56.5133 2.51697H15.9708V68.9105H56.5133V2.51697Z" fill="white"/>
<path d="M51.1843 14.1622H21.4297C21.1887 14.1618 20.9576 14.0457 20.7873 13.8392C20.617 13.6327 20.5214 13.3528 20.5214 13.061C20.5214 12.7692 20.617 12.4894 20.7873 12.2829C20.9576 12.0764 21.1887 11.9603 21.4297 11.9599H51.1843C51.3038 11.9597 51.4223 11.988 51.5327 12.0433C51.6432 12.0985 51.7436 12.1796 51.8282 12.2819C51.9128 12.3842 51.9799 12.5056 52.0257 12.6393C52.0715 12.773 52.095 12.9163 52.095 13.061C52.095 13.2058 52.0715 13.3491 52.0257 13.4828C51.9799 13.6165 51.9128 13.7379 51.8282 13.8402C51.7436 13.9425 51.6432 14.0236 51.5327 14.0788C51.4223 14.1341 51.3038 14.1624 51.1843 14.1622Z" fill="#E6E6E6"/>
<path d="M51.1843 25.4886H21.4297C21.1887 25.4882 20.9576 25.372 20.7873 25.1655C20.617 24.959 20.5214 24.6792 20.5214 24.3874C20.5214 24.0956 20.617 23.8157 20.7873 23.6092C20.9576 23.4028 21.1887 23.2866 21.4297 23.2862H51.1843C51.3038 23.286 51.4223 23.3144 51.5327 23.3696C51.6432 23.4249 51.7436 23.506 51.8282 23.6082C51.9128 23.7105 51.9799 23.8319 52.0257 23.9656C52.0715 24.0993 52.095 24.2427 52.095 24.3874C52.095 24.5321 52.0715 24.6754 52.0257 24.8091C51.9799 24.9428 51.9128 25.0643 51.8282 25.1665C51.7436 25.2688 51.6432 25.3499 51.5327 25.4051C51.4223 25.4604 51.3038 25.4887 51.1843 25.4886Z" fill="#E6E6E6"/>
<path d="M51.1843 36.8149H21.4297C21.1887 36.8145 20.9576 36.6983 20.7873 36.4919C20.617 36.2854 20.5214 36.0055 20.5214 35.7137C20.5214 35.4219 20.617 35.1421 20.7873 34.9356C20.9576 34.7291 21.1887 34.6129 21.4297 34.6125H51.1843C51.3038 34.6124 51.4223 34.6407 51.5327 34.696C51.6432 34.7512 51.7436 34.8323 51.8282 34.9346C51.9128 35.0368 51.9799 35.1583 52.0257 35.292C52.0715 35.4257 52.095 35.569 52.095 35.7137C52.095 35.8585 52.0715 36.0018 52.0257 36.1355C51.9799 36.2692 51.9128 36.3906 51.8282 36.4929C51.7436 36.5952 51.6432 36.6762 51.5327 36.7315C51.4223 36.7867 51.3038 36.8151 51.1843 36.8149Z" fill="#E6E6E6"/>
<path d="M51.1843 48.1413H21.4297C21.1887 48.1409 20.9576 48.0247 20.7873 47.8182C20.617 47.6118 20.5214 47.3319 20.5214 47.0401C20.5214 46.7483 20.617 46.4684 20.7873 46.262C20.9576 46.0555 21.1887 45.9393 21.4297 45.9389H51.1843C51.3038 45.9387 51.4223 45.9671 51.5327 46.0223C51.6432 46.0776 51.7436 46.1587 51.8282 46.2609C51.9128 46.3632 51.9799 46.4847 52.0257 46.6184C52.0715 46.7521 52.095 46.8954 52.095 47.0401C52.095 47.1848 52.0715 47.3281 52.0257 47.4618C51.9799 47.5955 51.9128 47.717 51.8282 47.8193C51.7436 47.9215 51.6432 48.0026 51.5327 48.0579C51.4223 48.1131 51.3038 48.1415 51.1843 48.1413Z" fill="#E6E6E6"/>
<path d="M51.1843 59.4676H21.4297C21.1887 59.4672 20.9576 59.351 20.7873 59.1446C20.617 58.9381 20.5214 58.6582 20.5214 58.3664C20.5214 58.0746 20.617 57.7948 20.7873 57.5883C20.9576 57.3818 21.1887 57.2656 21.4297 57.2653H51.1843C51.3038 57.2651 51.4223 57.2934 51.5327 57.3487C51.6432 57.4039 51.7436 57.485 51.8282 57.5873C51.9128 57.6895 51.9799 57.811 52.0257 57.9447C52.0715 58.0784 52.095 58.2217 52.095 58.3664C52.095 58.5112 52.0715 58.6545 52.0257 58.7882C51.9799 58.9219 51.9128 59.0433 51.8282 59.1456C51.7436 59.2479 51.6432 59.3289 51.5327 59.3842C51.4223 59.4395 51.3038 59.4678 51.1843 59.4676Z" fill="#E6E6E6"/>
<path d="M45.987 14.1622H21.2997C21.1802 14.1624 21.0618 14.1341 20.9513 14.0788C20.8408 14.0236 20.7404 13.9425 20.6558 13.8402C20.5712 13.7379 20.5041 13.6165 20.4584 13.4828C20.4126 13.3491 20.389 13.2058 20.389 13.061C20.389 12.9163 20.4126 12.773 20.4584 12.6393C20.5041 12.5056 20.5712 12.3842 20.6558 12.2819C20.7404 12.1796 20.8408 12.0985 20.9513 12.0433C21.0618 11.988 21.1802 11.9597 21.2997 11.9599H45.987C46.228 11.9603 46.459 12.0764 46.6293 12.2829C46.7996 12.4894 46.8953 12.7692 46.8953 13.061C46.8953 13.3528 46.7996 13.6327 46.6293 13.8392C46.459 14.0457 46.228 14.1618 45.987 14.1622Z" fill="#6C63FF"/>
<path d="M38.3209 25.4886H21.2997C21.0585 25.4886 20.8272 25.3725 20.6566 25.166C20.486 24.9595 20.3902 24.6794 20.3902 24.3874C20.3902 24.0953 20.486 23.8152 20.6566 23.6087C20.8272 23.4022 21.0585 23.2862 21.2997 23.2862H38.3209C38.4405 23.286 38.5589 23.3144 38.6694 23.3696C38.7799 23.4249 38.8803 23.506 38.9648 23.6082C39.0494 23.7105 39.1165 23.8319 39.1623 23.9656C39.2081 24.0993 39.2317 24.2427 39.2317 24.3874C39.2317 24.5321 39.2081 24.6754 39.1623 24.8091C39.1165 24.9428 39.0494 25.0643 38.9648 25.1665C38.8803 25.2688 38.7799 25.3499 38.6694 25.4051C38.5589 25.4604 38.4405 25.4887 38.3209 25.4886Z" fill="#6C63FF"/>
<path d="M28.9658 36.8149H21.2997C21.1802 36.8151 21.0618 36.7867 20.9513 36.7315C20.8408 36.6762 20.7404 36.5952 20.6558 36.4929C20.5712 36.3906 20.5041 36.2692 20.4584 36.1355C20.4126 36.0018 20.389 35.8585 20.389 35.7137C20.389 35.569 20.4126 35.4257 20.4584 35.292C20.5041 35.1583 20.5712 35.0368 20.6558 34.9346C20.7404 34.8323 20.8408 34.7512 20.9513 34.696C21.0618 34.6407 21.1802 34.6124 21.2997 34.6125H28.9658C29.2068 34.6129 29.4378 34.7291 29.6081 34.9356C29.7784 35.1421 29.8741 35.4219 29.8741 35.7137C29.8741 36.0055 29.7784 36.2854 29.6081 36.4919C29.4378 36.6983 29.2068 36.8145 28.9658 36.8149Z" fill="#6C63FF"/>
<path d="M48.3258 48.1413H21.2997C21.0585 48.1413 20.8272 48.0252 20.6566 47.8187C20.486 47.6122 20.3902 47.3321 20.3902 47.0401C20.3902 46.748 20.486 46.468 20.6566 46.2614C20.8272 46.0549 21.0585 45.9389 21.2997 45.9389H48.3258C48.567 45.9389 48.7983 46.0549 48.9689 46.2614C49.1395 46.468 49.2353 46.748 49.2353 47.0401C49.2353 47.3321 49.1395 47.6122 48.9689 47.8187C48.7983 48.0252 48.567 48.1413 48.3258 48.1413Z" fill="#6C63FF"/>
<path d="M42.3488 59.4676H21.2997C21.1802 59.4678 21.0618 59.4395 20.9513 59.3842C20.8408 59.3289 20.7404 59.2479 20.6558 59.1456C20.5712 59.0433 20.5041 58.9219 20.4584 58.7882C20.4126 58.6545 20.389 58.5112 20.389 58.3664C20.389 58.2217 20.4126 58.0784 20.4584 57.9447C20.5041 57.811 20.5712 57.6895 20.6558 57.5873C20.7404 57.485 20.8408 57.4039 20.9513 57.3487C21.0618 57.2934 21.1802 57.2651 21.2997 57.2653H42.3488C42.4684 57.2651 42.5868 57.2934 42.6973 57.3487C42.8078 57.4039 42.9082 57.485 42.9928 57.5873C43.0773 57.6895 43.1444 57.811 43.1902 57.9447C43.236 58.0784 43.2596 58.2217 43.2596 58.3664C43.2596 58.5112 43.236 58.6545 43.1902 58.7882C43.1444 58.9219 43.0773 59.0433 42.9928 59.1456C42.9082 59.2479 42.8078 59.3289 42.6973 59.3842C42.5868 59.4395 42.4684 59.4678 42.3488 59.4676Z" fill="#6C63FF"/>
<path d="M139.318 107.081H0V107.461H139.318V107.081Z" fill="#3F3D56"/>
<path d="M79.384 51.458C79.384 51.458 78.3979 42.7027 76.7544 45.0905C75.1108 47.4783 76.7544 51.06 76.7544 51.06L78.0692 53.0499L79.384 51.856V51.458Z" fill="#9F616A"/>
<path d="M83.3285 54.2438C83.3285 54.2438 80.0414 49.8661 79.384 50.6621C78.7266 51.458 76.7543 51.856 77.083 53.4478C77.4118 55.0397 84.3147 60.2133 84.3147 60.2133L83.3285 54.2438Z" fill="#6C63FF"/>
<path opacity="0.1" d="M83.3285 54.2438C83.3285 54.2438 80.0414 49.8661 79.384 50.6621C78.7266 51.458 76.7543 51.856 77.083 53.4478C77.4118 55.0397 84.3147 60.2133 84.3147 60.2133L83.3285 54.2438Z" fill="black"/>
<path d="M102.065 53.8458V57.0295C102.065 57.0295 102.394 64.193 100.421 63.795C98.4491 63.397 99.4352 57.4275 99.4352 57.4275L99.7639 53.8458L102.065 53.8458Z" fill="#9F616A"/>
<path d="M101.079 76.928C101.079 76.928 104.037 82.4995 105.023 82.8975C106.009 83.2955 111.269 86.8772 111.926 90.4589L116.528 97.6223L114.227 101.204C114.227 101.204 103.708 87.6731 100.75 86.4792C97.7917 85.2853 94.8333 79.3158 94.8333 79.3158L101.079 76.928Z" fill="#9F616A"/>
<path d="M77.7405 67.7747C77.7405 67.7747 71.495 68.9686 72.4811 73.7442C73.4673 78.5198 82.9998 88.469 82.9998 88.469L83.3285 90.8569L86.9443 91.6528L88.5878 89.663L88.2591 88.469C88.2591 88.469 84.3146 84.0914 83.9859 82.4995C83.6572 80.9077 80.0414 74.5402 78.3979 74.1422L80.6988 72.5503L77.7405 67.7747Z" fill="#9F616A"/>
<path d="M115.542 97.6223C115.542 97.6223 114.227 95.2345 116.199 95.6325C118.172 96.0305 119.486 96.4284 119.486 98.0203C119.486 99.6122 117.843 110.755 115.871 109.959C113.898 109.163 115.542 105.582 115.542 105.582C115.542 105.582 114.556 102.398 113.898 102C113.241 101.602 113.241 99.6122 113.898 99.6122C114.556 99.6122 115.871 98.4183 115.542 97.6223Z" fill="#2F2E41"/>
<path d="M87.6017 88.867C87.6017 88.867 87.6017 86.8772 88.9165 88.867C90.2314 90.8569 90.8888 92.4488 89.5739 93.6427C88.2591 94.8366 83.6572 97.6224 83.6572 97.6224C83.6572 97.6224 78.7266 98.8163 79.384 96.0305C79.384 96.0305 82.6711 94.0406 82.6711 92.4488C82.6711 90.8569 82.6711 88.0711 83.6572 88.867C84.6433 89.663 87.6017 90.061 87.6017 88.867Z" fill="#2F2E41"/>
<path d="M93.8472 59.0194C93.8472 59.0194 98.4491 59.8153 98.1204 67.7747C98.1204 67.7747 104.037 74.9381 102.394 77.3259C100.75 79.7137 97.1342 84.0914 95.8194 82.8975C94.5046 81.7036 90.5601 72.5503 90.5601 72.5503C90.5601 72.5503 81.3563 76.53 79.7127 74.5402C78.0692 72.5503 76.4256 67.7747 76.4256 67.7747L84.6433 62.6011L93.8472 59.0194Z" fill="#2F2E41"/>
<path d="M81.0276 36.3352C83.2061 36.3352 84.9721 34.1971 84.9721 31.5595C84.9721 28.922 83.2061 26.7839 81.0276 26.7839C78.8491 26.7839 77.0831 28.922 77.0831 31.5595C77.0831 34.1971 78.8491 36.3352 81.0276 36.3352Z" fill="#9F616A"/>
<path d="M83.9859 31.9575C83.9859 31.9575 86.2869 36.3352 86.9443 36.7331C87.6017 37.1311 82.3424 41.1108 82.3424 41.1108C82.3424 41.1108 82.3424 35.9372 80.6989 34.7433L83.9859 31.9575Z" fill="#9F616A"/>
<path d="M84.3146 36.3352C84.3146 36.3352 89.5739 34.3453 90.5601 37.5291C91.5462 40.7128 93.8471 46.6824 93.5184 50.662C93.1897 54.6417 92.5323 53.8458 93.5184 55.0397C94.5046 56.2336 95.162 55.4377 94.8333 57.0295C94.5045 58.6214 94.1758 58.6214 94.5045 59.4174C94.8333 60.2133 90.5601 62.9991 86.9443 63.397L83.3285 63.795C83.3285 63.795 83.3285 56.6316 82.6711 55.0397C82.0137 53.4478 80.6989 50.2641 80.6989 49.0702V45.9112C80.6989 43.8086 81.1521 41.7424 82.0137 39.9169C82.0137 39.9169 83.9859 36.3352 84.3146 36.3352Z" fill="#6C63FF"/>
<path d="M88.2591 37.927C88.2591 37.927 100.421 39.121 101.736 43.1006C103.051 47.0803 103.708 55.0397 102.394 55.0397C101.079 55.0397 99.4352 55.8357 99.1065 55.0397C98.7778 54.2438 97.463 46.2844 97.1342 46.2844C96.8055 46.2844 86.9443 45.0905 86.9443 45.0905C86.9443 45.0905 82.6711 38.723 88.2591 37.927Z" fill="#6C63FF"/>
<path d="M80.8691 30.3756C80.8691 30.3756 79.8223 28.1732 78.5139 30.0862C77.2055 31.9991 75.0769 28.4838 75.4037 27.7337C75.7305 26.9836 76.8844 27.7674 78.8619 26.9847C80.8394 26.2021 84.6486 24.6076 85.2866 29.8087C85.9246 35.0098 84.4052 34.4645 84.4052 34.4645C84.4052 34.4645 83.7087 29.8558 83.0793 31.1796L82.4498 32.5035L81.9038 32.6662L80.8691 30.3756Z" fill="#2F2E41"/>
</svg>
